<?xml version="1.0" encoding="UTF-8"?>
<svg version="1.1" xmlns="http://www.w3.org/2000/svg" width="512" height="512">
<path d="M0 0 C5.89883735 4.70339191 11.59125157 9.64199092 17.25390625 14.625 C49.29424318 42.76730845 85.04270093 62.6603721 129.10697937 60.77088928 C132.5041227 60.54004453 135.83996003 60.01769462 139.1875 59.41796875 C139.91770355 59.28773315 140.6479071 59.15749756 141.40023804 59.02331543 C149.57099127 57.48697373 157.44987417 55.0925336 165.37890625 52.625 C195.41241469 43.32518036 195.41241469 43.32518036 205.25390625 44.625 C207.75390625 46.125 207.75390625 46.125 209.25390625 48.625 C209.85783509 51.43183118 210.11996444 53.87082738 209.25390625 56.625 C205.38852084 60.42366943 201.65184604 61.52736865 196.44140625 62.375 C195.74853516 62.50003906 195.05566406 62.62507813 194.34179688 62.75390625 C192.64816786 63.05759145 190.95130844 63.34316718 189.25390625 63.625 C189.25026062 64.23506393 189.24661499 64.84512787 189.24285889 65.47367859 C189.20071134 71.88297215 189.13114509 78.29157093 189.04638672 84.70043945 C189.01834097 87.08513403 188.99704582 89.46991873 188.98291016 91.85473633 C188.7772499 124.60270471 188.7772499 124.60270471 176.44140625 137.5234375 C168.90739547 144.72327845 159.78662613 147.70028529 149.4765625 147.80200195 C147.76823242 147.82125481 147.76823242 147.82125481 146.02539062 147.84089661 C144.80142578 147.84828354 143.57746094 147.85567047 142.31640625 147.86328125 C141.04474609 147.871353 139.77308594 147.87942474 138.46289062 147.88774109 C135.76965717 147.9015656 133.07654535 147.91258518 130.38330078 147.92016602 C126.96873118 147.93116611 123.55482483 147.96550376 120.14048767 148.00533772 C116.84502805 148.03812559 113.54950404 148.04231084 110.25390625 148.05078125 C109.04613525 148.06828934 107.83836426 148.08579742 106.59399414 148.10383606 C93.41022203 148.07070327 82.90369839 144.92850525 73.35546875 135.8125 C66.39113615 128.52492834 63.2296938 119.5721115 63.04858398 109.55932617 C63.02863876 108.57868698 63.00869354 107.59804779 62.98814392 106.58769226 C62.96307518 105.01867912 62.96307518 105.01867912 62.9375 103.41796875 C62.9167189 102.33743729 62.89593781 101.25690582 62.87452698 100.14363098 C62.80926589 96.69998389 62.7502555 93.25626205 62.69140625 89.8125 C62.64819874 87.47460172 62.60458374 85.13671093 62.56054688 82.79882812 C62.45360853 77.07429722 62.35179898 71.34969235 62.25390625 65.625 C61.08472656 65.08230469 59.91554687 64.53960937 58.7109375 63.98046875 C57.16269388 63.25795506 55.61452049 62.53529087 54.06640625 61.8125 C53.29748047 61.45607422 52.52855469 61.09964844 51.73632812 60.73242188 C47.77404957 58.87882375 43.95380713 56.97543803 40.25390625 54.625 C40.54938354 55.42224487 40.54938354 55.42224487 40.85083008 56.2355957 C42.90932609 62.04941349 44.11832789 67.70851931 44.94140625 73.8125 C45.06733154 74.73450195 45.19325684 75.65650391 45.32299805 76.60644531 C47.47880619 93.32162123 45.9789492 109.57563856 41.94140625 125.875 C41.75296143 126.67317139 41.5645166 127.47134277 41.37036133 128.29370117 C39.8131057 134.17631759 37.4567663 137.60659385 32.18359375 140.9296875 C27.11572112 142.75576306 22.61548743 141.2431707 17.94140625 139.12109375 C-6.78167059 126.15834984 -16.27319145 103.69646593 -25.39593506 78.82504272 C-32.94508106 58.28904828 -41.21759741 38.47040443 -56.74609375 22.625 C-57.4215625 21.9134375 -58.09703125 21.201875 -58.79296875 20.46875 C-68.81788679 10.66995793 -81.85212812 5.93672359 -95.74609375 5.625 C-103.15869023 6.02889148 -108.03629233 6.7404808 -113.74609375 11.625 C-116.80859375 12.8125 -116.80859375 12.8125 -120.74609375 12.625 C-123.90365548 11.06319528 -126.82530748 9.30167231 -129.78125 7.38671875 C-134.5059466 4.57929034 -139.24244354 3.41830613 -144.62109375 2.5 C-145.58789062 2.33242187 -146.5546875 2.16484375 -147.55078125 1.9921875 C-148.27523437 1.87101562 -148.9996875 1.74984375 -149.74609375 1.625 C-145.91104853 11.95925903 -142.38827555 19.10639536 -132.48046875 24.38671875 C-130.34475533 25.91154117 -129.6407105 27.17412287 -128.74609375 29.625 C-129.04725762 33.46483935 -129.85872697 37.09257121 -130.7578125 40.82421875 C-134.6891187 58.65278296 -129.79562453 75.8184828 -125.57519531 93.09960938 C-123.97917168 99.8859996 -122.82047398 106.73873433 -121.74609375 113.625 C-120.77027344 113.30273438 -119.79445312 112.98046875 -118.7890625 112.6484375 C-114.52316165 111.43756888 -110.47326962 111.25763125 -106.05859375 111.25 C-105.33220703 111.22550781 -104.60582031 111.20101562 -103.85742188 111.17578125 C-97.00919353 111.14008241 -91.10957001 113.23810475 -84.74609375 115.625 C-84.64063232 114.86880371 -84.5351709 114.11260742 -84.42651367 113.33349609 C-83.93968176 109.88737072 -83.43680147 106.44377063 -82.93359375 103 C-82.76794922 101.81019531 -82.60230469 100.62039062 -82.43164062 99.39453125 C-82.26083984 98.24082031 -82.09003906 97.08710938 -81.9140625 95.8984375 C-81.76219482 94.84060059 -81.61032715 93.78276367 -81.45385742 92.69287109 C-80.49128509 88.52050688 -78.93526052 84.99711551 -76.12109375 81.75 C-72.19844734 79.89190433 -68.98342327 79.64317974 -64.74609375 80.625 C-53.94262649 86.1495003 -46.78886512 95.77435744 -42.53515625 106.9453125 C-40.27593061 114.61773226 -39.48362776 121.58218602 -39.62109375 129.58203125 C-39.62866699 130.6062468 -39.63624023 131.63046234 -39.64404297 132.68571472 C-39.67642586 137.02611665 -39.73265057 141.36612671 -39.78710938 145.70629883 C-40.16195864 161.10498045 -40.16195864 161.10498045 -38.22021484 176.32543945 C-37.08631906 181.82500915 -36.71662545 186.64932922 -39.33984375 191.68359375 C-42.07222167 195.02365961 -44.77330138 196.58701313 -48.62109375 198.3125 C-50.04311257 198.99188656 -51.4649786 199.67159297 -52.88671875 200.3515625 C-54.50625651 201.10991748 -56.12606675 201.86769071 -57.74609375 202.625 C-61.63322388 204.4547954 -65.50452025 206.31471898 -69.37109375 208.1875 C-70.77464111 208.83948364 -70.77464111 208.83948364 -72.20654297 209.50463867 C-83.17656306 214.82718861 -86.95571397 222.29419761 -91.99609375 233.125 C-92.55385498 234.31101807 -93.11161621 235.49703613 -93.6862793 236.71899414 C-94.83051545 239.1591948 -95.96524535 241.60353134 -97.09326172 244.05126953 C-98.64559023 247.40769269 -100.22757927 250.74872944 -101.8125 254.08984375 C-102.73047353 256.07952756 -103.6459726 258.0703555 -104.55859375 260.0625 C-104.98495117 260.95324219 -105.41130859 261.84398437 -105.85058594 262.76171875 C-110.49186886 273.15694755 -108.97657529 282.80178489 -106.68359375 293.625 C-104.55358295 304.52463649 -104.63677879 314.61625479 -105.74609375 325.625 C-104.03722396 324.54251309 -102.32902504 323.45896706 -100.62109375 322.375 C-99.66976562 321.77171875 -98.7184375 321.1684375 -97.73828125 320.546875 C-94.71686613 318.60622717 -91.72840327 316.62500579 -88.74609375 314.625 C-89.82147041 304.74418621 -91.08434822 294.93120479 -92.78051758 285.13549805 C-94.35980842 275.69936224 -93.5306683 270.18426672 -88.87109375 261.8125 C-88.37730225 260.89976318 -87.88351074 259.98702637 -87.37475586 259.04663086 C-85.84629541 256.23125106 -84.2974563 253.42781144 -82.74609375 250.625 C-81.80650756 248.90407371 -80.86767277 247.18273689 -79.9296875 245.4609375 C-77.57244177 241.15967353 -75.20433698 236.86940798 -72.74609375 232.625 C-72.15699219 231.55121094 -71.56789063 230.47742188 -70.9609375 229.37109375 C-66.03065584 223.25824012 -57.64673909 221.44797669 -50.37890625 219.234375 C-49.39400208 218.92833344 -48.4090979 218.62229187 -47.39434814 218.30697632 C-44.22195274 217.32296792 -41.04665224 216.34874694 -37.87109375 215.375 C-35.69335086 214.7022143 -33.51577955 214.02887298 -31.33837891 213.35498047 C-27.07110869 212.03539056 -22.80268652 210.71963748 -18.53320312 209.40722656 C-13.68861859 207.91720784 -8.84878346 206.41265957 -4.01171875 204.8984375 C-1.71488368 204.18216363 0.58198682 203.46600333 2.87890625 202.75 C4.38300049 202.27771973 4.38300049 202.27771973 5.91748047 201.79589844 C19.35639955 197.63992524 31.09224777 198.25620242 44.80163574 201.0758667 C48.36005578 201.80241841 51.92837774 202.47709627 55.49609375 203.15625 C56.53485657 203.35473038 56.53485657 203.35473038 57.59460449 203.55722046 C82.93772703 208.38274786 111.97253621 209.50426554 137.25390625 203.625 C138.12047852 203.42632324 138.98705078 203.22764648 139.87988281 203.02294922 C166.02598752 196.84068748 190.46859641 185.8877274 212.515625 170.5234375 C215.81198209 168.23808865 217.55441062 167.44011976 221.50390625 167.3125 C222.2515625 167.27511719 222.99921875 167.23773438 223.76953125 167.19921875 C228.42844678 167.99768069 231.45274455 170.66649303 234.421875 174.21875 C235.08832031 175.1778125 235.75476563 176.136875 236.44140625 177.125 C247.63951505 192.52704997 261.86167486 206.92951389 276.82421875 218.6953125 C279.15987223 220.55031703 281.36326362 222.49054024 283.56640625 224.5 C286.77155888 227.39907499 290.08953033 230.07077307 293.51708984 232.69677734 C302.36534962 239.48438811 310.40435754 245.85344622 312.81414795 257.28196716 C313.35228583 261.37287938 313.40936625 265.36715333 313.41503906 269.48852539 C313.42000397 270.35919144 313.42496887 271.22985748 313.43008423 272.12690735 C313.44462852 274.99216515 313.45149287 277.85736769 313.45703125 280.72265625 C313.46278655 282.71992493 313.46854424 284.71719361 313.4743042 286.71446228 C313.48479039 290.89468644 313.49064946 295.0748915 313.49414062 299.25512695 C313.49963783 304.61072451 313.52370201 309.96606943 313.55211258 315.32158756 C313.5707302 319.44368737 313.57594397 323.565726 313.5774765 327.6878643 C313.58050263 329.66262642 313.58852982 331.63738746 313.60166168 333.61210823 C313.61871302 336.37189216 313.61684483 339.13105394 313.61035156 341.89086914 C313.61956635 342.70503296 313.62878113 343.51919678 313.63827515 344.35803223 C313.59538945 350.17563643 312.40198695 353.4140048 308.38671875 357.546875 C307.0562066 358.75831408 305.72290013 359.9666918 304.38671875 361.171875 C301.39115515 364.4463491 301.39115515 364.4463491 297.25390625 372.625 C305.50390625 372.955 313.75390625 373.285 322.25390625 373.625 C323.24390625 370.655 324.23390625 367.685 325.25390625 364.625 C325.58390625 363.965 325.91390625 363.305 326.25390625 362.625 C326.41434978 359.80073606 326.51395308 356.99880111 326.5703125 354.171875 C326.59127487 353.27659088 326.61223724 352.38130676 326.63383484 351.45889282 C326.7014736 348.43102877 326.75999053 345.40309322 326.81640625 342.375 C326.84667908 340.80797333 326.84667908 340.80797333 326.87756348 339.20928955 C327.24288364 319.71883652 327.41807823 300.22565733 327.4850769 280.73205566 C327.49617624 277.5811851 327.51404072 274.43046435 327.53762817 271.27966309 C327.56508589 267.5242268 327.5772594 263.76903389 327.57804298 260.01350021 C327.58066835 258.62121031 327.58835573 257.22891926 327.60150719 255.836689 C327.69808668 244.99716411 326.80500922 238.66443916 319.06640625 230.6875 C318.57881836 230.16808838 318.09123047 229.64867676 317.58886719 229.11352539 C314.80948045 226.17126257 311.93691403 223.35201424 309.00390625 220.5625 C299.24687375 210.86532659 292.68818618 197.10953761 292.11669922 183.3125 C292.12597967 175.52517234 292.34780967 167.77674465 292.76171875 160 C292.81068298 159.07493652 292.85964722 158.14987305 292.91009521 157.19677734 C293.11503508 153.38130101 293.32276314 149.5661568 293.55029297 145.75195312 C294.84324827 123.79045146 293.83190103 104.02375344 280.25390625 85.625 C279.6815625 84.84511719 279.10921875 84.06523437 278.51953125 83.26171875 C267.58820837 69.73771031 250.87080623 63.40195283 234.40625 59.71484375 C230.98599132 58.53237513 229.93027774 57.77490799 228.25390625 54.625 C227.75390625 51.6875 227.75390625 51.6875 228.25390625 48.625 C230.31640625 45.75 230.31640625 45.75 233.25390625 43.625 C239.04015586 43.10162064 243.95558596 44.38998184 249.44140625 46 C250.23482422 46.22171875 251.02824219 46.4434375 251.84570312 46.671875 C257.77984957 48.36592184 257.77984957 48.36592184 260.2668457 49.72509766 C264.14505374 51.48146513 268.90480981 49.88667819 272.97265625 49.09765625 C288.5912399 46.84783646 304.0163051 48.57745187 317.25390625 57.625 C333.84276323 70.41846297 342.80508569 87.75568087 345.97106934 108.39404297 C346.81422553 115.04467853 346.74425011 121.74522821 346.69140625 128.4375 C346.68902954 129.23571167 346.68665283 130.03392334 346.6842041 130.85632324 C346.61549518 145.71591975 345.17991793 160.03261556 342.25390625 174.625 C342.07778809 175.51735352 341.90166992 176.40970703 341.72021484 177.32910156 C338.5647253 192.91286955 338.5647253 192.91286955 333.19140625 198.9375 C328.87052165 201.4197103 325.107586 201.76315486 320.25390625 200.625 C317.18694145 198.63468307 314.71433965 196.31910585 312.25390625 193.625 C315.02380668 203.10815665 321.97796882 209.44823439 328.87890625 216.1875 C338.53971975 225.67626596 344.25314872 234.50441037 344.61035156 248.42089844 C344.61645849 251.02668446 344.60668581 253.62902857 344.58203125 256.234375 C344.57959182 257.66529689 344.57841868 259.09622142 344.57841492 260.52714539 C344.57415516 264.35184192 344.55052132 268.17616569 344.52122116 272.00074387 C344.49801417 275.18293441 344.48285506 278.36514591 344.46728039 281.5473814 C344.43522052 288.00833516 344.39302209 294.469123 344.33888721 300.92992878 C344.272086 308.93237573 344.24782553 316.93324581 344.26272583 324.9359436 C344.26644171 329.83945573 344.241012 334.74249101 344.20715332 339.64587402 C344.19679116 341.89414141 344.19754594 344.14249214 344.21032715 346.39074707 C344.27775615 360.65279035 343.69445736 374.23253796 333.76928711 385.42749023 C328.86886261 389.70864339 325.13603265 389.9331304 318.7265625 389.92578125 C317.90063095 389.93006638 317.0746994 389.9343515 316.22373962 389.93876648 C314.47965409 389.94450066 312.73554464 389.94501676 310.99145508 389.94067383 C308.32917301 389.93751515 305.66800404 389.96097905 303.00585938 389.98632812 C301.30859515 389.98860141 299.61132794 389.98930448 297.9140625 389.98828125 C296.72478905 390.00209587 296.72478905 390.00209587 295.51148987 390.01618958 C290.91580136 389.97789449 288.01636985 389.53862311 284.25390625 386.625 C281.14578483 383.34420516 279.84864717 381.07234043 279.25390625 376.625 C279.96327277 366.57564093 283.94994731 358.63840374 291.37158203 352.0065918 C298.39252381 344.35493145 297.60095676 336.38136782 297.37109375 326.45703125 C297.36257586 324.60863077 297.35793442 322.76020879 297.35696411 320.91178894 C297.34469121 317.05550761 297.29958497 313.20157664 297.22802734 309.34594727 C297.13729123 304.41979203 297.10796196 299.49575105 297.10055351 294.56883717 C297.09167123 290.75867645 297.06102349 286.94895291 297.02280045 283.13898277 C297.00512933 281.32305145 296.99162449 279.50707436 296.9824791 277.69108009 C296.96426236 275.14979391 296.9193854 272.61035739 296.86669922 270.06958008 C296.86536987 269.33016174 296.86404053 268.59074341 296.8626709 267.82891846 C296.68209524 261.47590956 294.60992927 256.23934048 290.33447266 251.49511719 C289.35486572 250.7163623 289.35486572 250.7163623 288.35546875 249.921875 C287.6284375 249.3340625 286.90140625 248.74625 286.15234375 248.140625 C285.02699219 247.26664062 285.02699219 247.26664062 283.87890625 246.375 C283.13640625 245.776875 282.39390625 245.17875 281.62890625 244.5625 C277.62851668 241.36784261 273.56294543 238.38825687 269.25390625 235.625 C268.72023438 236.29144531 268.1865625 236.95789063 267.63671875 237.64453125 C263.62907034 242.60208941 259.57224797 247.43438744 255.25390625 252.125 C251.14011716 256.5948512 247.28303328 261.21544893 243.46875 265.94140625 C240.59788765 269.41985851 237.56585969 272.73470018 234.52734375 276.06640625 C231.29458255 279.70465124 228.24577521 283.48279763 225.19921875 287.27734375 C223.25390625 289.625 223.25390625 289.625 221.62109375 290.98608398 C220.05004768 292.54268774 220.05004768 292.54268774 220.11279297 294.75048828 C220.21865723 295.55728027 220.32452148 296.36407227 220.43359375 297.1953125 C220.53800781 298.0925 220.64242188 298.9896875 220.75 299.9140625 C220.87503906 300.84992188 221.00007813 301.78578125 221.12890625 302.75 C223.2143664 318.97533833 223.2143664 318.97533833 220.01171875 324.9375 C215.65743299 329.43762308 211.01751409 333.41365745 206.11328125 337.30859375 C202.35555566 340.35276216 198.80514918 343.59857452 195.25 346.875 C191.57135817 350.10011065 188.53775459 349.97554321 183.7890625 349.88671875 C179.8568492 349.48077377 178.08138433 348.38672278 175.25390625 345.625 C168.15026568 334.42538841 166.45777299 322.27457491 169.25390625 309.3125 C169.434375 308.50941406 169.61484375 307.70632813 169.80078125 306.87890625 C170.93644674 301.22994945 170.22852559 296.26818978 169.19140625 290.6875 C167.19183634 278.88263172 167.19183634 278.88263172 170.72265625 273.3046875 C172.80567104 270.64969734 175.00501753 268.14101193 177.25390625 265.625 C178.12097222 264.60607315 178.98412895 263.58380933 179.84375 262.55859375 C183.65884351 258.00961598 187.4838354 253.47652177 191.4375 249.046875 C191.95078857 248.46333252 192.46407715 247.87979004 192.99291992 247.27856445 C193.98141415 246.15590717 194.97996412 245.04200485 195.98950195 243.93823242 C198.49447109 241.11863926 198.49447109 241.11863926 199.42578125 237.56640625 C197.98446527 235.1786261 196.0864297 233.7331422 193.90722656 232.03076172 C191.05369194 229.60449881 188.89074998 226.65537123 186.62890625 223.6875 C186.16484375 223.09259766 185.70078125 222.49769531 185.22265625 221.88476562 C182.39626768 218.23201768 179.77183357 214.49646102 177.25390625 210.625 C171.96188703 211.20306192 167.31643456 212.54846137 162.31640625 214.375 C154.89999106 216.96492173 147.44394451 218.84461027 139.75390625 220.4375 C138.76398682 220.64407227 137.77406738 220.85064453 136.75415039 221.06347656 C125.53017947 223.30732795 114.54036769 223.83702922 103.11962891 223.86523438 C100.81373287 223.87475304 98.50880575 223.90577272 96.203125 223.9375 C82.42151086 224.03117838 68.90469677 222.40865944 55.25390625 220.625 C55.25026062 221.72889572 55.24661499 222.83279144 55.24285889 223.97013855 C55.20591846 234.37307173 55.14815613 244.77570864 55.07000351 255.17841625 C55.0304935 260.52659012 54.99832225 265.87459848 54.98291016 271.22290039 C54.96776688 276.3842911 54.93336255 281.54522687 54.88559723 286.70641518 C54.87075942 288.67554076 54.86286386 290.64473128 54.8620224 292.61391258 C54.85965822 295.37225225 54.83262311 298.12932903 54.79980469 300.88745117 C54.80735023 302.1088102 54.80735023 302.1088102 54.81504822 303.35484314 C54.74225631 307.30884271 54.51914005 309.20726673 52.3447876 312.63179016 C50.25390625 314.625 50.25390625 314.625 48.25390625 315.25390625 C47.59390625 315.23199219 46.93390625 315.21007812 46.25390625 315.1875 C45.59390625 315.18878906 44.93390625 315.19007813 44.25390625 315.19140625 C41.21474021 314.33070493 40.16056031 313.16164167 38.25390625 310.625 C37.66904834 307.59912602 37.74868849 304.61508525 37.79980469 301.54199219 C37.79922058 300.62457245 37.79863647 299.70715271 37.79803467 298.76193237 C37.80081994 295.73152748 37.83193317 292.70210792 37.86328125 289.671875 C37.87074205 287.57009417 37.87643574 285.46830638 37.88043213 283.36651611 C37.89570101 277.8359861 37.93499397 272.30587661 37.97924805 266.7755127 C38.0201735 261.13164967 38.03843734 255.48771866 38.05859375 249.84375 C38.10148673 238.77064862 38.16975351 227.69785929 38.25390625 216.625 C36.99964844 216.46201416 35.74539062 216.29902832 34.453125 216.13110352 C33.74760498 216.03942398 33.04208496 215.94774445 32.31518555 215.85328674 C29.61894031 215.5546775 26.96489521 215.52861264 24.25390625 215.5625 C22.58723958 215.58333333 20.92057292 215.60416667 19.25390625 215.625 C19.35194833 216.70666301 19.35194833 216.70666301 19.45197105 217.8101778 C20.10233195 225.24900246 20.53694499 232.67523648 20.84228516 240.13549805 C20.89280533 241.32248291 20.9433255 242.50946777 20.99537659 243.73242188 C21.15984208 247.61707701 21.32046884 251.50187729 21.48046875 255.38671875 C21.5364552 256.73497101 21.59251015 258.08322043 21.64863205 259.43146706 C21.94204485 266.48325135 22.23248901 273.53515164 22.52050781 280.5871582 C22.78801375 287.13467574 23.06258895 293.68187201 23.34030783 300.22896355 C23.57955892 305.87751081 23.81352213 311.52626175 24.0435003 317.17519408 C24.18048475 320.53731468 24.31960871 323.89931227 24.46422195 327.26111412 C24.62405014 331.00807233 24.7752246 334.75528685 24.92431641 338.50268555 C24.97309433 339.60161636 25.02187225 340.70054718 25.0721283 341.83277893 C25.66621562 357.42202656 25.66621562 357.42202656 22.328125 362.62890625 C21.54050781 363.47324219 20.75289062 364.31757813 19.94140625 365.1875 C16.12331825 369.50412815 13.54187655 373.35272061 11.25390625 378.625 C21.57324662 380.02236838 21.57324662 380.02236838 31.12890625 376.83203125 C38.50481553 367.65282062 37.29280485 355.48104898 37.06201172 344.29711914 C37.2742361 341.34190809 37.93513765 339.27021438 39.25390625 336.625 C42.15739196 334.20542857 43.58041556 333.59806037 47.37890625 333.75 C50.46378046 334.68887476 51.40142693 335.05436138 53.25390625 337.625 C54.11288525 342.947413 54.08471634 348.36481236 54.12890625 353.75 C54.13780884 354.52177582 54.14671143 355.29355164 54.15588379 356.0887146 C54.20499601 368.62952038 52.408811 377.69820013 43.59960938 387.17431641 C42.05594554 388.78949757 42.05594554 388.78949757 40.14453125 391.41796875 C37.27700457 394.76539142 35.28426479 395.53182375 30.86572266 395.93139648 C29.52921302 395.96472996 28.19235272 395.98558722 26.85546875 395.99609375 C26.1428891 396.00512222 25.43030945 396.0141507 24.69613647 396.02345276 C23.1916726 396.03792845 21.68714615 396.04683534 20.18261719 396.05053711 C17.89278972 396.0624279 15.60566492 396.11162551 13.31640625 396.16210938 C11.85027349 396.1715756 10.38412427 396.17880969 8.91796875 396.18359375 C8.23964996 396.20312607 7.56133118 396.22265839 6.86245728 396.24278259 C1.2797993 396.19036674 -0.95077439 394.407188 -4.74609375 390.625 C-7.30770727 386.72689247 -6.9222987 382.90628996 -6.34375 378.4375 C-4.55669931 370.02784967 -0.85027045 363.06403613 4.703125 356.5625 C7.6382936 352.8953876 8.5101179 350.26742971 8.30459595 345.56622314 C8.26527451 344.54575897 8.22595306 343.5252948 8.18544006 342.47390747 C8.13149582 341.36006683 8.07755157 340.2462262 8.02197266 339.09863281 C7.97349686 337.92096344 7.92502106 336.74329407 7.87507629 335.52993774 C7.74015195 332.30206666 7.59566407 329.07479183 7.44704866 325.8475275 C7.29362118 322.46434202 7.15273309 319.08063544 7.0105896 315.69696045 C6.73925194 309.28177909 6.45718927 302.86711773 6.17103136 296.45258212 C5.75241763 287.05795907 5.35010728 277.66263523 4.94750023 268.26731491 C4.88788949 266.87683837 4.82827155 265.48636214 4.76864624 264.09588623 C4.73952884 263.41646933 4.71041144 262.73705244 4.6804117 262.03704715 C4.47988813 257.36772732 4.27454128 252.69863907 4.0675354 248.02960205 C4.0129567 246.78526398 3.95837799 245.5409259 3.90214539 244.25888062 C3.80063014 241.94526126 3.69782397 239.63169801 3.59342957 237.31820679 C3.35064933 231.74701347 3.20123671 226.20147221 3.25390625 220.625 C-35.24256526 227.77882475 -35.24256526 227.77882475 -65.40380859 248.99946594 C-68.33525402 254.23318595 -70.34682307 259.8243361 -71.87402344 265.61572266 C-72.6755532 268.38158377 -73.5829491 270.1183789 -75.16796875 272.47265625 C-78.39193793 278.5088029 -75.70166064 286.47317066 -74.49609375 292.875 C-69.88609239 318.43851437 -69.88609239 318.43851437 -73.734375 325.03125 C-77.29289969 328.09591977 -80.94198215 330.6618094 -84.93359375 333.125 C-86.06970093 333.83619995 -86.06970093 333.83619995 -87.22875977 334.56176758 C-88.7263547 335.4975442 -90.22620618 336.42972117 -91.72851562 337.35791016 C-93.42164133 338.42123571 -95.08066888 339.53859004 -96.73046875 340.66796875 C-101.63304436 343.954568 -105.50134164 345.54328552 -111.48046875 345.1484375 C-115.39888452 344.24314834 -117.07232389 342.6329911 -119.74609375 339.625 C-123.60281297 332.82982805 -123.62773697 322.31077248 -122.4465332 314.69311523 C-121.48438616 308.28617164 -122.37849929 302.86604267 -123.68359375 296.5625 C-128.03595742 273.42946502 -122.7748424 258.19841605 -112.74609375 237.375 C-111.93036433 235.66696514 -111.11525601 233.9586335 -110.30078125 232.25 C-108.12882352 227.70200871 -105.95268343 223.15630946 -103.74609375 218.625 C-103.389104 217.89172989 -103.03211426 217.15845978 -102.66430664 216.40296936 C-102.31489014 215.69353683 -101.96547363 214.98410431 -101.60546875 214.25317383 C-101.29448242 213.62051102 -100.98349609 212.98784821 -100.66308594 212.33601379 C-95.84275638 203.34177101 -87.61500013 198.01846934 -78.74609375 193.625 C-77.83730469 193.17382812 -76.92851563 192.72265625 -75.9921875 192.2578125 C-70.86316281 189.72932779 -65.71756789 187.23558395 -60.55078125 184.78515625 C-59.2356958 184.16072632 -59.2356958 184.16072632 -57.89404297 183.52368164 C-55.74609375 182.625 -55.74609375 182.625 -53.74609375 182.625 C-54.21015625 181.14 -54.21015625 181.14 -54.68359375 179.625 C-56.98986418 172.24493463 -56.84612593 164.65826954 -56.703125 157.01953125 C-56.68072815 154.96290036 -56.65927369 152.90625903 -56.63867188 150.84960938 C-56.60172999 147.6483874 -56.55878364 144.44771281 -56.49926758 141.24682617 C-55.71506278 120.57746726 -55.71506278 120.57746726 -64.74609375 102.625 C-65.03457202 104.23348489 -65.32258725 105.8420536 -65.60888672 107.45092773 C-65.87183294 108.92730613 -66.13654285 110.40337129 -66.40283203 111.87915039 C-67.22583018 116.49271512 -67.9769818 121.10964548 -68.66015625 125.74609375 C-68.81967773 126.79216797 -68.97919922 127.83824219 -69.14355469 128.91601562 C-69.45469101 130.96607951 -69.75287738 133.01816385 -70.03613281 135.07226562 C-71.46342748 144.30189899 -74.47097863 152.44115214 -81.74609375 158.625 C-82.44734375 159.305625 -83.14859375 159.98625 -83.87109375 160.6875 C-91.39943753 165.76094907 -99.74459704 167.88368386 -108.74609375 166.625 C-118.84678387 164.07252831 -125.61154511 159.92719067 -131.38671875 151.296875 C-135.54990339 143.1140638 -136.56655168 134.61694139 -137.65298462 125.61853027 C-139.23812678 112.5919199 -141.42972156 99.91102617 -144.50875854 87.15484619 C-148.77997043 69.44461944 -151.22745443 52.60509346 -146.74609375 34.625 C-147.6753064 34.18607422 -147.6753064 34.18607422 -148.62329102 33.73828125 C-157.28716735 29.19460372 -161.64034444 18.93951015 -165.05859375 10.3125 C-166.24740788 3.93613332 -167.5984758 -3.47810297 -163.97265625 -9.1484375 C-158.77045228 -14.35064147 -152.83024976 -14.29233774 -145.74609375 -14.375 C-137.57816825 -13.84550663 -130.74861563 -11.88309789 -123.40234375 -8.30078125 C-120.20003683 -7.1846831 -118.94625315 -7.29871321 -115.74609375 -8.375 C-113.27313273 -9.58187265 -110.85606759 -10.82544681 -108.43359375 -12.125 C-72.98598653 -30.51731495 -31.22054163 -24.04907206 0 0 Z M-68.74609375 -6.375 C-65.73546592 -3.98921945 -62.62539798 -2.19183023 -59.24609375 -0.375 C-46.84070799 6.85392917 -38.3819298 16.66661676 -30.74609375 28.625 C-30.070625 29.67945313 -29.39515625 30.73390625 -28.69921875 31.8203125 C-19.6882406 46.77853624 -13.53040306 63.25612223 -7.62109375 79.625 C-1.10206449 97.58262804 6.00735271 114.83962237 24.25390625 123.625 C24.91390625 123.295 25.57390625 122.965 26.25390625 122.625 C33.45804339 95.91109434 31.0887307 68.42183263 18.19140625 43.93359375 C3.47370183 18.80073962 -20.90355758 1.94702136 -48.74609375 -5.375 C-53.02401934 -6.45630821 -57.17129578 -6.49207883 -61.55859375 -6.4375 C-62.25146484 -6.43298828 -62.94433594 -6.42847656 -63.65820312 -6.42382812 C-65.35420443 -6.41213156 -67.05016078 -6.39419924 -68.74609375 -6.375 Z M284.25390625 64.625 C285.05828125 65.511875 285.86265625 66.39875 286.69140625 67.3125 C303.66317546 87.25332576 310.62066382 108.6509854 310.1640625 134.6328125 C309.89844411 150.83187892 310.5052996 164.85509311 320.25390625 178.625 C321.56753977 179.65074107 322.89877749 180.65474033 324.25390625 181.625 C325.07237959 177.48032317 325.88259087 173.33407143 326.69140625 169.1875 C326.92150391 168.02283203 327.15160156 166.85816406 327.38867188 165.65820312 C329.5785808 154.39128039 330.46419192 143.65283673 330.49414062 132.1887207 C330.50381119 129.9594133 330.53490314 127.73104404 330.56640625 125.50195312 C330.70526187 106.57890886 326.66010654 89.56172124 313.23828125 75.515625 C304.90191982 67.83566998 295.59395737 64.22710347 284.25390625 64.625 Z M166.3984375 69.0859375 C136.17433187 78.26577259 109.90650963 77.97332976 79.25390625 70.625 C79.15448095 76.58401714 79.08217561 82.54254355 79.03417969 88.50219727 C79.01415595 90.52637146 78.98692858 92.55048847 78.95214844 94.57446289 C78.90322163 97.49640065 78.88084475 100.4175688 78.86328125 103.33984375 C78.84263611 104.23396469 78.82199097 105.12808563 78.80072021 106.04930115 C78.79817826 113.28678817 80.52588976 119.31714195 85.18359375 124.96484375 C85.82554687 125.49207031 86.4675 126.01929688 87.12890625 126.5625 C88.08410156 127.38041016 88.08410156 127.38041016 89.05859375 128.21484375 C93.46286124 131.04391949 97.85439919 131.87498133 103.0246582 131.91552734 C104.69217888 131.9346669 104.69217888 131.9346669 106.39338684 131.95419312 C107.58099106 131.95641876 108.76859528 131.95864441 109.9921875 131.9609375 C111.84519722 131.9709227 111.84519722 131.9709227 113.73564148 131.98110962 C116.34547439 131.9912201 118.95533307 131.99592714 121.56518555 131.99560547 C125.54181081 131.99536265 129.51769723 132.03629861 133.49414062 132.07421875 C136.03515247 132.08008841 138.57616957 132.0840568 141.1171875 132.0859375 C142.88948479 132.10749405 142.88948479 132.10749405 144.69758606 132.12948608 C152.40266707 132.08719744 159.18079588 131.29047295 165.10102844 125.96273804 C171.76846632 119.03407877 172.69784583 111.19473707 172.546875 102 C172.54263016 101.01249756 172.53838531 100.02499512 172.53401184 99.00756836 C172.51733271 95.87975823 172.4797006 92.7526126 172.44140625 89.625 C172.4263455 87.49349894 172.41265954 85.3619877 172.40039062 83.23046875 C172.36746465 78.02842236 172.31737392 72.82675867 172.25390625 67.625 C170.26167605 67.625 168.28048769 68.50646109 166.3984375 69.0859375 Z M-119.74609375 130.625 C-120.06255447 135.89934536 -119.67531183 139.18392743 -116.74609375 143.625 C-112.66813423 147.75116235 -109.50054529 150.35495573 -103.55859375 150.9375 C-97.44841511 150.43666568 -93.33173076 148.45458116 -89.30859375 143.8125 C-87.60861355 140.34454039 -87.05274963 137.45819853 -86.74609375 133.625 C-97.14491055 127.22572812 -108.56183992 124.23399781 -119.74609375 130.625 Z M213.50390625 189.1875 C206.64604709 193.83456375 199.63463578 197.8661799 192.25390625 201.625 C195.28926549 209.93610267 201.44213665 215.9944493 207.56640625 222.1875 C208.09411621 222.7244751 208.62182617 223.2614502 209.16552734 223.81469727 C211.72884277 226.7155351 211.72884277 226.7155351 215.25390625 227.625 C217.61241951 232.19461944 218.16673586 236.60032531 217.25390625 241.625 C214.3431702 247.94450679 209.28122649 252.96388611 204.61328125 258.0234375 C201.42282395 261.54139208 198.42952988 265.19551099 195.4765625 268.9140625 C193.25390625 271.625 193.25390625 271.625 190.875 274.0859375 C187.65249564 277.54942914 185.41484025 279.97491718 184.9453125 284.7890625 C185.19157717 288.12731688 185.6477728 291.33398015 186.25390625 294.625 C187.39961533 301.69896523 186.90228868 306.80721372 184.96484375 313.73046875 C183.40653975 320.07499216 183.76553369 325.55959188 186.25390625 331.625 C190.10373847 330.01787664 192.72680902 327.5191665 195.75390625 324.6875 C201.00963905 319.78551844 201.00963905 319.78551844 203.578125 318.09765625 C205.4582489 316.74717127 205.4582489 316.74717127 205.6796875 314.4609375 C205.64230469 313.64882813 205.60492188 312.83671875 205.56640625 312 C205.51419922 310.66775391 205.51419922 310.66775391 205.4609375 309.30859375 C205.21672843 306.14309128 204.86469859 303.00010087 204.4921875 299.84765625 C203.72976951 292.73592127 203.63360169 287.49243047 208.25390625 281.625 C210.65653174 278.87298014 213.11707528 276.18672806 215.609375 273.515625 C218.10144154 270.79165271 220.44061229 268.00120919 222.75390625 265.125 C225.80739304 261.34039666 228.96058926 257.70292463 232.25390625 254.125 C236.35907376 249.6645166 240.210886 245.05654473 244.01171875 240.3359375 C247.01318696 236.70698464 250.19217588 233.25722281 253.40625 229.81640625 C255.11213949 227.79314197 256.12874028 225.99489829 257.25390625 223.625 C256.55418701 222.94099121 255.85446777 222.25698242 255.13354492 221.55224609 C230.74301801 197.66318543 230.74301801 197.66318543 222.87890625 186.80859375 C222.34265625 186.08800781 221.80640625 185.36742187 221.25390625 184.625 C218.72644674 184.625 215.62048661 187.73760214 213.50390625 189.1875 Z " fill="#000000" transform="translate(165.74609375,69.375)"/>
<path d="M0 0 C1.91015625 0.4453125 1.91015625 0.4453125 4.47265625 2.5078125 C6.3464113 6.33679022 6.03978326 8.37865526 4.91015625 12.4453125 C3.84765625 14.3828125 3.84765625 14.3828125 1.91015625 15.4453125 C-4.88229658 16.20002948 -4.88229658 16.20002948 -8.58984375 13.8828125 C-10.67377193 10.49642921 -10.64786472 8.35145932 -10.08984375 4.4453125 C-7.53315462 0.29069266 -4.61630624 -0.25885829 0 0 Z " fill="#000000" transform="translate(61.08984375,135.5546875)"/>
</svg>
